# xmcd CD database file
#
# Track frame offsets:
#	150
#	24640
#	40572
#	61387
#
# Disc length: 965 seconds
#
# Revision: 0
# Processed by: cddbd v1.5.1PL2 Copyright (c) Steve Scherf et al.
# Submitted via: CDex 1.40Beta9
#
DISCID=2903c304
DTITLE=AIR - Hello
DYEAR=1998
DGENRE=Japanese Pop
TTITLE0=Hello
TTITLE1=Yawn
TTITLE2=Say Juice
TTITLE3=Theme of MABOODACHI （Bonus Track）
EXTD=YEAR: 1998
EXTT0=
EXTT1=
EXTT2=
EXTT3=
PLAYORDER=
